<svg width="269" height="294" viewBox="0 0 269 294" fill="none" xmlns="http://www.w3.org/2000/svg">
<rect x="51" width="166.612" height="166.612" rx="34" fill="#4E83FD"/>
<g clip-path="url(#clip0_649_7766)" filter="url(#filter0_i_649_7766)">
<path d="M107.696 104.447C107.696 105.551 108.591 106.447 109.696 106.447H170.947C171.795 106.447 172.489 107.141 172.489 107.989V123.416C172.489 124.265 171.795 124.959 170.947 124.959H107.696C97.869 124.959 89.8315 117.307 89.2299 107.65C89.199 107.249 89.1836 106.848 89.1836 106.447V60.1657C89.1836 59.7646 89.199 59.3635 89.2299 58.9624C89.8315 49.3051 97.869 41.6533 107.696 41.6533H170.947C171.795 41.6533 172.489 42.3475 172.489 43.196V58.623C172.489 59.4715 171.795 60.1657 170.947 60.1657H109.696C108.591 60.1657 107.696 61.0611 107.696 62.1657V104.447Z" fill="white"/>
<path d="M158.45 92.5622H141.48C140.632 92.5622 139.938 91.868 139.938 91.0195V75.5925C139.938 74.744 140.632 74.0498 141.48 74.0498H156.907C157.756 74.0498 158.45 74.744 158.45 75.5925V92.5622Z" fill="white"/>
<path d="M133.614 75.5925V92.5622H116.644C115.796 92.5622 115.102 91.868 115.102 91.0195V75.5925C115.102 74.744 115.796 74.0498 116.644 74.0498H132.071C132.92 74.0498 133.614 74.744 133.614 75.5925Z" fill="white"/>
</g>
<path d="M14.148 218.778C13.116 218.778 12.192 218.982 11.376 219.39C10.584 219.798 9.912 220.386 9.36 221.154C8.808 221.898 8.388 222.81 8.1 223.89C7.836 224.97 7.704 226.182 7.704 227.526C7.704 229.35 7.92 230.91 8.352 232.206C8.808 233.478 9.516 234.45 10.476 235.122C11.436 235.794 12.66 236.13 14.148 236.13C15.204 236.13 16.248 236.01 17.28 235.77C18.336 235.53 19.476 235.194 20.7 234.762V239.334C19.572 239.79 18.456 240.126 17.352 240.342C16.248 240.558 15.012 240.666 13.644 240.666C11.004 240.666 8.82 240.126 7.092 239.046C5.388 237.942 4.128 236.406 3.312 234.438C2.496 232.446 2.088 230.13 2.088 227.49C2.088 225.546 2.352 223.77 2.88 222.162C3.408 220.53 4.176 219.126 5.184 217.95C6.216 216.774 7.476 215.862 8.964 215.214C10.476 214.566 12.204 214.242 14.148 214.242C15.42 214.242 16.692 214.41 17.964 214.746C19.26 215.058 20.496 215.49 21.672 216.042L19.908 220.47C18.948 220.014 17.976 219.618 16.992 219.282C16.032 218.946 15.084 218.778 14.148 218.778ZM50.4259 240.306H44.2339L37.5019 229.47L35.1979 231.126V240.306H29.7619V214.602H35.1979V226.374C35.5579 225.87 35.9179 225.366 36.2779 224.862C36.6379 224.358 36.9979 223.854 37.3579 223.35L44.3059 214.602H50.3539L41.3899 225.978L50.4259 240.306ZM68.1401 240.306L61.9481 220.146H61.8041C61.8281 220.626 61.8641 221.346 61.9121 222.306C61.9601 223.266 62.0081 224.298 62.0561 225.402C62.1041 226.482 62.1281 227.466 62.1281 228.354V240.306H57.2681V214.602H64.6841L70.7681 234.258H70.8761L77.3201 214.602H84.7361V240.306H79.6601V228.138C79.6601 227.322 79.6721 226.386 79.6961 225.33C79.7441 224.274 79.7801 223.278 79.8041 222.342C79.8521 221.382 79.8881 220.662 79.9121 220.182H79.7681L73.1441 240.306H68.1401ZM102.317 214.602C104.645 214.602 106.565 214.89 108.077 215.466C109.589 216.018 110.717 216.87 111.461 218.022C112.205 219.15 112.577 220.578 112.577 222.306C112.577 223.482 112.349 224.514 111.893 225.402C111.461 226.266 110.873 227.01 110.129 227.634C109.409 228.234 108.629 228.726 107.789 229.11L115.349 240.306H109.301L103.181 230.442H100.265V240.306H94.8291V214.602H102.317ZM101.921 219.066H100.265V226.014H102.029C103.229 226.014 104.201 225.882 104.945 225.618C105.689 225.354 106.229 224.958 106.565 224.43C106.901 223.878 107.069 223.218 107.069 222.45C107.069 221.634 106.877 220.986 106.493 220.506C106.133 220.002 105.569 219.642 104.801 219.426C104.057 219.186 103.097 219.066 101.921 219.066ZM145.523 227.418C145.523 229.41 145.271 231.222 144.767 232.854C144.287 234.462 143.543 235.854 142.535 237.03C141.551 238.206 140.279 239.106 138.719 239.73C137.183 240.354 135.371 240.666 133.283 240.666C131.195 240.666 129.371 240.354 127.811 239.73C126.275 239.082 125.003 238.182 123.995 237.03C123.011 235.854 122.267 234.45 121.763 232.818C121.283 231.186 121.043 229.374 121.043 227.382C121.043 224.718 121.475 222.402 122.339 220.434C123.227 218.466 124.571 216.942 126.371 215.862C128.195 214.758 130.511 214.206 133.319 214.206C136.103 214.206 138.395 214.758 140.195 215.862C141.995 216.942 143.327 218.478 144.191 220.47C145.079 222.438 145.523 224.754 145.523 227.418ZM126.767 227.418C126.767 229.218 126.995 230.766 127.451 232.062C127.907 233.358 128.615 234.354 129.575 235.05C130.535 235.746 131.771 236.094 133.283 236.094C134.843 236.094 136.091 235.746 137.027 235.05C137.987 234.354 138.683 233.358 139.115 232.062C139.571 230.766 139.799 229.218 139.799 227.418C139.799 224.706 139.295 222.582 138.287 221.046C137.279 219.51 135.623 218.742 133.319 218.742C131.783 218.742 130.535 219.09 129.575 219.786C128.615 220.482 127.907 221.478 127.451 222.774C126.995 224.07 126.767 225.618 126.767 227.418ZM153.151 240.306V235.374H158.119V240.306H153.151ZM177.814 218.778C176.782 218.778 175.858 218.982 175.042 219.39C174.25 219.798 173.578 220.386 173.026 221.154C172.474 221.898 172.054 222.81 171.766 223.89C171.502 224.97 171.37 226.182 171.37 227.526C171.37 229.35 171.586 230.91 172.018 232.206C172.474 233.478 173.182 234.45 174.142 235.122C175.102 235.794 176.326 236.13 177.814 236.13C178.87 236.13 179.914 236.01 180.946 235.77C182.002 235.53 183.142 235.194 184.366 234.762V239.334C183.238 239.79 182.122 240.126 181.018 240.342C179.914 240.558 178.678 240.666 177.31 240.666C174.67 240.666 172.486 240.126 170.758 239.046C169.054 237.942 167.794 236.406 166.978 234.438C166.162 232.446 165.754 230.13 165.754 227.49C165.754 225.546 166.018 223.77 166.546 222.162C167.074 220.53 167.842 219.126 168.85 217.95C169.882 216.774 171.142 215.862 172.63 215.214C174.142 214.566 175.87 214.242 177.814 214.242C179.086 214.242 180.358 214.41 181.63 214.746C182.926 215.058 184.162 215.49 185.338 216.042L183.574 220.47C182.614 220.014 181.642 219.618 180.658 219.282C179.698 218.946 178.75 218.778 177.814 218.778ZM214.488 240.306H209.052V229.218H198.864V240.306H193.428V214.602H198.864V224.682H209.052V214.602H214.488V240.306ZM240.288 240.306L238.416 234.186H229.056L227.184 240.306H221.316L230.388 214.494H237.048L246.156 240.306H240.288ZM235.248 223.638C235.128 223.23 234.972 222.714 234.78 222.09C234.588 221.466 234.396 220.83 234.204 220.182C234.012 219.534 233.856 218.97 233.736 218.49C233.616 218.97 233.448 219.57 233.232 220.29C233.04 220.986 232.848 221.658 232.656 222.306C232.488 222.93 232.356 223.374 232.26 223.638L230.424 229.614H237.12L235.248 223.638ZM260.38 240.306H254.944V219.138H247.96V214.602H267.364V219.138H260.38V240.306Z" fill="#4E83FD"/>
<path opacity="0.6" d="M41.616 277.576H47.112V273.112H48.864V277.576H54.6V279.256H48.864V285.88H55.68V287.584H40.632V285.88H47.112V279.256H41.616V277.576ZM37.752 278.632C36.864 279.544 35.928 280.432 34.92 281.272L33.84 279.856C36.84 277.384 39.168 274.552 40.848 271.36H34.68V269.656H41.664C42.144 268.552 42.576 267.4 42.912 266.224L44.712 266.44C44.376 267.544 44.016 268.624 43.584 269.656H55.656V271.36H42.816C41.88 273.256 40.752 275.032 39.456 276.664V288.472H37.752V278.632ZM66.552 283.624V285.28C64.2 286.192 61.512 286.936 58.488 287.488L58.272 285.808C61.44 285.28 64.2 284.536 66.552 283.624ZM62.28 266.272L63.936 266.92C62.712 270.04 61.464 272.536 60.216 274.408C61.296 274.312 62.376 274.168 63.456 274C63.888 273.136 64.368 272.224 64.848 271.264L66.384 271.84C64.272 275.896 62.496 278.776 61.104 280.48C62.832 280.144 64.56 279.688 66.288 279.112V280.672C63.768 281.488 61.368 282.064 59.064 282.376L58.584 280.792C58.896 280.648 59.16 280.48 59.376 280.288C60.264 279.376 61.344 277.792 62.592 275.56C61.272 275.752 59.928 275.92 58.584 276.088L58.176 274.504C58.44 274.408 58.68 274.192 58.896 273.88C60.192 271.672 61.32 269.128 62.28 266.272ZM78.192 270.64L78.432 272.224L72.264 273.088C72.312 274.24 72.384 275.32 72.48 276.352L78.84 275.344L79.104 276.976L72.672 277.984C72.72 278.416 72.792 278.848 72.864 279.232C73.104 280.48 73.392 281.56 73.728 282.52C75.024 281.32 76.176 279.976 77.184 278.44L78.552 279.376C77.28 281.224 75.912 282.808 74.424 284.104C74.52 284.248 74.592 284.416 74.688 284.56C75.48 285.736 76.176 286.336 76.8 286.336C77.424 286.336 77.976 285.04 78.408 282.472L79.872 283.432C79.2 286.6 78.24 288.208 76.992 288.208C75.84 288.16 74.76 287.44 73.728 286C73.512 285.712 73.32 285.424 73.176 285.112C71.4 286.432 69.48 287.416 67.44 288.04L66.432 286.648C68.64 285.928 70.632 284.92 72.408 283.6C71.952 282.544 71.592 281.392 71.304 280.096C71.16 279.472 71.064 278.872 70.968 278.248L66.648 278.944L66.408 277.312L70.752 276.616C70.632 275.584 70.56 274.48 70.536 273.328L67.08 273.832L66.816 272.248L70.488 271.72V266.392H72.216V271.48L78.192 270.64ZM74.904 266.32C76.128 267.472 77.064 268.456 77.736 269.296L76.392 270.232C75.72 269.296 74.76 268.264 73.56 267.16L74.904 266.32ZM102.12 275.584C102.888 277.336 103.56 279.208 104.136 281.2L102.816 281.8C102.192 279.64 101.496 277.696 100.776 276.016L102.12 275.584ZM94.2 266.584H95.88V270.712H100.752C100.752 278.488 100.632 283.288 100.392 285.112C100.152 287.128 99.024 288.16 96.96 288.16C96.6 288.16 96 288.112 95.16 288.064L94.728 286.48C95.496 286.528 96.144 286.552 96.72 286.552C97.872 286.552 98.544 285.832 98.736 284.416C98.88 283.12 98.976 279.112 99.024 272.392H95.88V272.8C95.784 279.928 93.864 285.136 90.096 288.424L88.8 287.272C92.328 284.272 94.128 279.448 94.2 272.8V272.392H90.12V270.712H94.2V266.584ZM90.552 275.464L91.944 275.824C91.224 278.656 90.24 280.84 88.944 282.352L87.792 281.272C89.04 279.736 89.976 277.792 90.552 275.464ZM81.984 272.056H84.768V266.536H86.424V272.056H89.112V273.664H86.424V288.4H84.768V273.664H81.984V272.056ZM116.616 271.48C115.512 273.808 114.24 275.824 112.8 277.552L111.576 276.088C113.688 273.592 115.44 270.304 116.784 266.248L118.512 266.632C118.128 267.736 117.744 268.792 117.36 269.776H127.728V271.48H119.664V275.44H126.672V277.12H119.664V281.176H126.816V282.832H119.664V288.424H117.912V271.48H116.616ZM108.936 274.936C108.168 275.944 107.328 276.904 106.416 277.816L105.84 275.992C108.432 273.184 110.328 269.968 111.504 266.32L113.136 267.088C112.488 268.96 111.672 270.712 110.712 272.344V288.424H108.936V274.936ZM135 275.608C135.48 275.608 135.888 275.776 136.224 276.112C136.56 276.448 136.752 276.88 136.752 277.36C136.752 277.84 136.56 278.248 136.224 278.584C135.888 278.92 135.48 279.088 135 279.088C134.52 279.088 134.112 278.92 133.776 278.584C133.416 278.248 133.248 277.84 133.248 277.36C133.248 276.88 133.416 276.448 133.776 276.112C134.112 275.776 134.52 275.608 135 275.608ZM149.232 267.424H163.632V269.008H156.84V271.144H162.504V280.36H156.792C156.624 282.064 156.144 283.48 155.352 284.632C157.848 285.952 160.752 286.696 164.088 286.84L163.656 288.424C160.056 288.232 156.936 287.368 154.272 285.832C152.976 286.912 151.128 287.776 148.68 288.424L147.792 287.032C150.024 286.456 151.68 285.736 152.784 284.896C151.608 284.08 150.528 283.12 149.568 282.016L150.864 281.104C151.776 282.112 152.784 283 153.888 283.768C154.536 282.808 154.944 281.656 155.088 280.36H149.496V271.144H155.16V269.008H149.232V267.424ZM160.872 278.944V276.424H156.84V278.944H160.872ZM155.16 278.944V276.424H151.128V278.944H155.16ZM151.128 275.008H155.16V272.56H151.128V275.008ZM156.84 272.56V275.008H160.872V272.56H156.84ZM144.744 275.08C144.048 276.136 143.28 277.168 142.464 278.128L141.888 276.304C144.144 273.424 145.8 270.112 146.808 266.392L148.368 267.112C147.84 268.864 147.216 270.52 146.448 272.104V288.376H144.744V275.08ZM186.024 279.856H181.296V282.016H186.576V283.528H181.296V286.216C182.112 286.312 183.072 286.36 184.152 286.36C185.664 286.36 186.936 286.312 187.992 286.24L187.488 287.992C186.288 287.992 185.232 287.968 184.272 287.944C181.296 287.92 179.28 287.632 178.224 287.104C177.384 286.672 176.616 285.832 175.944 284.608C175.392 286.192 174.672 287.44 173.808 288.4L172.416 287.44C173.856 285.856 174.768 283.648 175.152 280.84L176.76 281.08C176.664 281.752 176.544 282.352 176.424 282.904C177.144 284.344 177.96 285.256 178.872 285.664C179.112 285.76 179.352 285.832 179.64 285.928V279.856H175.008V278.368H179.64V276.352H174.216V274.864H179.64V272.872H175.176V271.384H179.64V269.608H174.072V268.096H179.64V266.416H181.296V268.096H187.368V269.608H181.296V271.384H186.024V274.864H187.584V276.352H186.024V279.856ZM181.296 272.872V274.864H184.464V272.872H181.296ZM184.464 276.352H181.296V278.368H184.464V276.352ZM169.032 288.136H166.92L166.56 286.48C167.208 286.552 167.832 286.6 168.432 286.6C169.008 286.6 169.32 286.288 169.32 285.688V279.688C168.36 280.072 167.424 280.432 166.464 280.768L166.032 279.04C167.136 278.752 168.24 278.392 169.32 277.96V272.464H166.368V270.808H169.32V266.44H171.048V270.808H173.616V272.464H171.048V277.192C171.864 276.808 172.632 276.376 173.4 275.944V277.672C172.608 278.104 171.816 278.512 171.048 278.896V286.12C171.048 287.464 170.376 288.136 169.032 288.136ZM191.88 266.608C193.56 267.808 194.976 269.032 196.128 270.232L194.928 271.432C193.896 270.28 192.48 269.08 190.656 267.784L191.88 266.608ZM191.448 272.464C193.032 273.616 194.376 274.792 195.432 275.944L194.232 277.144C193.272 276.04 191.928 274.888 190.248 273.64L191.448 272.464ZM194.184 278.704L195.72 279.28C194.664 282.4 193.512 285.352 192.24 288.088L190.536 287.344C191.952 284.536 193.176 281.656 194.184 278.704ZM210.984 269.848C210.984 278.2 210.864 283.384 210.624 285.352C210.384 287.32 209.28 288.328 207.312 288.328C206.688 288.328 205.608 288.28 204.072 288.232L203.664 286.624C204.96 286.672 206.112 286.72 207.072 286.72C208.176 286.72 208.8 286.024 208.944 284.656C209.112 283.24 209.208 278.872 209.256 271.528H200.136C199.224 273.304 198.096 274.888 196.752 276.28L195.672 274.864C197.928 272.512 199.464 269.608 200.28 266.176L202.008 266.368C201.72 267.592 201.336 268.744 200.904 269.848H210.984ZM204.624 277.24C205.704 279.064 206.736 281.056 207.72 283.216L206.208 283.984C205.92 283.312 205.656 282.664 205.392 282.088C203.04 282.616 200.424 283.024 197.568 283.288L197.28 281.752C198.528 281.032 200.088 278.32 201.984 273.616L203.568 274.144C202.2 277.312 200.832 279.832 199.44 281.656C201.312 281.464 203.088 281.128 204.744 280.696C204.264 279.688 203.76 278.752 203.256 277.888L204.624 277.24ZM216.024 266.776C217.68 268.024 219.072 269.272 220.2 270.52L218.976 271.72C217.968 270.52 216.6 269.248 214.848 267.904L216.024 266.776ZM230.064 287.968C228.744 287.968 227.304 287.944 225.768 287.92C224.208 287.896 222.936 287.752 221.976 287.488C221.016 287.2 220.152 286.6 219.408 285.736C219.072 285.328 218.76 285.136 218.472 285.136C217.896 285.136 216.936 286.24 215.616 288.448L214.32 287.272C215.592 285.256 216.72 284.032 217.704 283.6V276.304H214.296V274.72H219.312V283.696C219.504 283.84 219.696 284.008 219.912 284.248C220.488 284.944 221.112 285.448 221.784 285.76C222.552 286.096 223.632 286.288 225.072 286.336C226.344 286.36 227.928 286.384 229.824 286.384C230.928 286.384 232.08 286.36 233.256 286.336C234.408 286.312 235.296 286.288 235.92 286.24L235.512 287.968H230.064ZM225.768 269.08C226.776 269.68 227.712 270.28 228.528 270.88C229.776 270.232 230.928 269.512 231.984 268.696H221.328V267.232H234.312V268.48C232.872 269.728 231.312 270.808 229.632 271.72L230.016 272.032H234.768V282.76C234.768 283.984 234.096 284.608 232.752 284.608H230.76L230.376 283.144L232.272 283.216C232.848 283.216 233.136 282.928 233.136 282.4V280.6H229.104V284.728H227.496V280.6H223.488V284.8H221.856V272.032H227.856C226.944 271.384 225.888 270.736 224.712 270.112L225.768 269.08ZM223.488 277.072V279.184H227.496V277.072H223.488ZM229.104 277.072V279.184H233.136V277.072H229.104ZM233.136 275.632V273.472H229.104V275.632H233.136ZM227.496 275.632V273.472H223.488V275.632H227.496Z" fill="#4E83FD"/>
<defs>
<filter id="filter0_i_649_7766" x="89.1836" y="41.6533" width="83.3047" height="85.3057" filterUnits="userSpaceOnUse" color-interpolation-filters="sRGB">
<feFlood flood-opacity="0" result="BackgroundImageFix"/>
<feBlend mode="normal" in="SourceGraphic" in2="BackgroundImageFix" result="shape"/>
<feColorMatrix in="SourceAlpha" type="matrix" values="0 0 0 0 0 0 0 0 0 0 0 0 0 0 0 0 0 0 127 0" result="hardAlpha"/>
<feOffset dy="2"/>
<feGaussianBlur stdDeviation="2"/>
<feComposite in2="hardAlpha" operator="arithmetic" k2="-1" k3="1"/>
<feColorMatrix type="matrix" values="0 0 0 0 0 0 0 0 0 0 0 0 0 0 0 0 0 0 0.16 0"/>
<feBlend mode="normal" in2="shape" result="effect1_innerShadow_649_7766"/>
</filter>
<clipPath id="clip0_649_7766">
<rect width="83.3058" height="83.3058" fill="white" transform="translate(89.1836 41.6533)"/>
</clipPath>
</defs>
</svg>
